<svg width="50" height="70" viewBox="0 0 50 70" fill="none" xmlns="http://www.w3.org/2000/svg">
<path d="M20.7746 70H6.95423V17.9833C6.95423 14.0869 7.76115 10.805 9.375 8.13744C10.9888 5.46992 13.3216 3.4468 16.3732 2.06808C19.4249 0.689361 23.1074 0 27.4208 0C29.24 0 31.5288 0.0749307 34.287 0.224792C37.0452 0.34468 39.8327 0.494542 42.6496 0.674375C45.4959 0.854208 47.946 1.03404 50 1.21387L44.3662 12.4085C41.7253 11.9889 39.1579 11.6442 36.6637 11.3744C34.1989 11.1047 31.7928 10.9698 29.4454 10.9698C27.5675 10.9698 25.983 11.2396 24.6919 11.7791C23.4302 12.3186 22.4619 13.1128 21.787 14.1619C21.1121 15.1809 20.7746 16.4547 20.7746 17.9833V70ZM36.2236 70V1.21387H50V70H36.2236ZM30.1937 21.3552V31.201H0V21.3552H30.1937Z" fill="url(#paint0_linear_549_15)"/>
<defs>
<linearGradient id="paint0_linear_549_15" x1="27.6701" y1="-16.0302" x2="27.6701" y2="92.3041" gradientUnits="userSpaceOnUse">
<stop stop-color="white"/>
<stop offset="1" stop-color="#EEE2BC"/>
</linearGradient>
</defs>
</svg>
