<svg width="259" height="95" viewBox="0 0 259 95" fill="none" xmlns="http://www.w3.org/2000/svg">
<g filter="url(#filter0_d_158_63)">
<path d="M43.7188 61.6875V69H20.8125V61.6875H43.7188ZM23.8438 23.5V69H14.4688V23.5H23.8438ZM79.625 61.6875V69H55.4062V61.6875H79.625ZM58.4688 23.5V69H49.0938V23.5H58.4688ZM76.4688 42.0312V49.1562H55.4062V42.0312H76.4688ZM79.5938 23.5V30.8438H55.4062V23.5H79.5938ZM121.156 45.2188V63.25C120.448 64.1042 119.354 65.0312 117.875 66.0312C116.396 67.0104 114.49 67.8542 112.156 68.5625C109.823 69.2708 107 69.625 103.688 69.625C100.75 69.625 98.0729 69.1458 95.6562 68.1875C93.2396 67.2083 91.1562 65.7812 89.4062 63.9062C87.6771 62.0312 86.3438 59.7396 85.4062 57.0312C84.4688 54.3021 84 51.1875 84 47.6875V44.8438C84 41.3438 84.4479 38.2292 85.3438 35.5C86.2604 32.7708 87.5625 30.4688 89.25 28.5938C90.9375 26.7188 92.9479 25.2917 95.2812 24.3125C97.6146 23.3333 100.208 22.8438 103.062 22.8438C107.021 22.8438 110.271 23.4896 112.812 24.7812C115.354 26.0521 117.292 27.8229 118.625 30.0938C119.979 32.3438 120.812 34.9271 121.125 37.8438H112.031C111.802 36.3021 111.365 34.9583 110.719 33.8125C110.073 32.6667 109.146 31.7708 107.938 31.125C106.75 30.4792 105.208 30.1562 103.312 30.1562C101.75 30.1562 100.354 30.4792 99.125 31.125C97.9167 31.75 96.8958 32.6771 96.0625 33.9062C95.2292 35.1354 94.5938 36.6562 94.1562 38.4688C93.7188 40.2812 93.5 42.3854 93.5 44.7812V47.6875C93.5 50.0625 93.7292 52.1667 94.1875 54C94.6458 55.8125 95.3229 57.3438 96.2188 58.5938C97.1354 59.8229 98.2604 60.75 99.5938 61.375C100.927 62 102.479 62.3125 104.25 62.3125C105.729 62.3125 106.958 62.1875 107.938 61.9375C108.938 61.6875 109.74 61.3854 110.344 61.0312C110.969 60.6562 111.448 60.3021 111.781 59.9688V51.9062H103.219V45.2188H121.156ZM147.219 31.2812L134.844 69H124.875L141.781 23.5H148.125L147.219 31.2812ZM157.5 69L145.094 31.2812L144.094 23.5H150.5L167.5 69H157.5ZM156.938 52.0625V59.4062H132.906V52.0625H156.938ZM197.531 53.9062H206.875C206.688 56.9688 205.844 59.6875 204.344 62.0625C202.865 64.4375 200.792 66.2917 198.125 67.625C195.479 68.9583 192.292 69.625 188.562 69.625C185.646 69.625 183.031 69.125 180.719 68.125C178.406 67.1042 176.427 65.6458 174.781 63.75C173.156 61.8542 171.917 59.5625 171.062 56.875C170.208 54.1875 169.781 51.1771 169.781 47.8438V44.6875C169.781 41.3542 170.219 38.3438 171.094 35.6562C171.99 32.9479 173.26 30.6458 174.906 28.75C176.573 26.8542 178.562 25.3958 180.875 24.375C183.188 23.3542 185.771 22.8438 188.625 22.8438C192.417 22.8438 195.615 23.5312 198.219 24.9062C200.844 26.2812 202.875 28.1771 204.312 30.5938C205.771 33.0104 206.646 35.7604 206.938 38.8438H197.562C197.458 37.0104 197.094 35.4583 196.469 34.1875C195.844 32.8958 194.896 31.9271 193.625 31.2812C192.375 30.6146 190.708 30.2812 188.625 30.2812C187.062 30.2812 185.698 30.5729 184.531 31.1562C183.365 31.7396 182.385 32.625 181.594 33.8125C180.802 35 180.208 36.5 179.812 38.3125C179.438 40.1042 179.25 42.2083 179.25 44.625V47.8438C179.25 50.1979 179.427 52.2708 179.781 54.0625C180.135 55.8333 180.677 57.3333 181.406 58.5625C182.156 59.7708 183.115 60.6875 184.281 61.3125C185.469 61.9167 186.896 62.2188 188.562 62.2188C190.521 62.2188 192.135 61.9062 193.406 61.2812C194.677 60.6562 195.646 59.7292 196.312 58.5C197 57.2708 197.406 55.7396 197.531 53.9062ZM219.281 23.5L228.781 44.25L238.281 23.5H248.5L233.531 52.4375V69H224.031V52.4375L209.031 23.5H219.281Z" fill="url(#paint0_linear_158_63)"/>
</g>
<defs>
<filter id="filter0_d_158_63" x="14.4688" y="22.8438" width="243.29" height="56.04" filterUnits="userSpaceOnUse" color-interpolation-filters="sRGB">
<feFlood flood-opacity="0" result="BackgroundImageFix"/>
<feColorMatrix in="SourceAlpha" type="matrix" values="0 0 0 0 0 0 0 0 0 0 0 0 0 0 0 0 0 0 127 0" result="hardAlpha"/>
<feOffset dx="4.6294" dy="4.6294"/>
<feGaussianBlur stdDeviation="2.3147"/>
<feComposite in2="hardAlpha" operator="out"/>
<feColorMatrix type="matrix" values="0 0 0 0 0 0 0 0 0 0 0 0 0 0 0.0313726 0 0 0 0.25 0"/>
<feBlend mode="normal" in2="BackgroundImageFix" result="effect1_dropShadow_158_63"/>
<feBlend mode="normal" in="SourceGraphic" in2="effect1_dropShadow_158_63" result="shape"/>
</filter>
<linearGradient id="paint0_linear_158_63" x1="129.5" y1="10" x2="129.5" y2="85" gradientUnits="userSpaceOnUse">
<stop stop-color="#E0C97D"/>
<stop offset="1" stop-color="#9E7E39"/>
</linearGradient>
</defs>
</svg>
