<svg width="247" height="75" viewBox="0 0 247 75" fill="none" xmlns="http://www.w3.org/2000/svg">
<g id="text_legacy.svg">
<g id="Legacy" filter="url(#filter0_d_1960_142)">
<path d="M33.7188 51.6875V59H10.8125V51.6875H33.7188ZM13.8438 13.5V59H4.46875V13.5H13.8438ZM69.625 51.6875V59H45.4062V51.6875H69.625ZM48.4688 13.5V59H39.0938V13.5H48.4688ZM66.4688 32.0312V39.1562H45.4062V32.0312H66.4688ZM69.5938 13.5V20.8438H45.4062V13.5H69.5938ZM111.156 35.2188V53.25C110.448 54.1042 109.354 55.0312 107.875 56.0312C106.396 57.0104 104.49 57.8542 102.156 58.5625C99.8229 59.2708 97 59.625 93.6875 59.625C90.75 59.625 88.0729 59.1458 85.6562 58.1875C83.2396 57.2083 81.1562 55.7812 79.4062 53.9062C77.6771 52.0312 76.3438 49.7396 75.4062 47.0312C74.4688 44.3021 74 41.1875 74 37.6875V34.8438C74 31.3438 74.4479 28.2292 75.3438 25.5C76.2604 22.7708 77.5625 20.4688 79.25 18.5938C80.9375 16.7188 82.9479 15.2917 85.2812 14.3125C87.6146 13.3333 90.2083 12.8438 93.0625 12.8438C97.0208 12.8438 100.271 13.4896 102.812 14.7812C105.354 16.0521 107.292 17.8229 108.625 20.0938C109.979 22.3438 110.812 24.9271 111.125 27.8438H102.031C101.802 26.3021 101.365 24.9583 100.719 23.8125C100.073 22.6667 99.1458 21.7708 97.9375 21.125C96.75 20.4792 95.2083 20.1562 93.3125 20.1562C91.75 20.1562 90.3542 20.4792 89.125 21.125C87.9167 21.75 86.8958 22.6771 86.0625 23.9062C85.2292 25.1354 84.5938 26.6562 84.1562 28.4688C83.7188 30.2812 83.5 32.3854 83.5 34.7812V37.6875C83.5 40.0625 83.7292 42.1667 84.1875 44C84.6458 45.8125 85.3229 47.3438 86.2188 48.5938C87.1354 49.8229 88.2604 50.75 89.5938 51.375C90.9271 52 92.4792 52.3125 94.25 52.3125C95.7292 52.3125 96.9583 52.1875 97.9375 51.9375C98.9375 51.6875 99.7396 51.3854 100.344 51.0312C100.969 50.6562 101.448 50.3021 101.781 49.9688V41.9062H93.2188V35.2188H111.156ZM137.219 21.2812L124.844 59H114.875L131.781 13.5H138.125L137.219 21.2812ZM147.5 59L135.094 21.2812L134.094 13.5H140.5L157.5 59H147.5ZM146.938 42.0625V49.4062H122.906V42.0625H146.938ZM187.531 43.9062H196.875C196.688 46.9688 195.844 49.6875 194.344 52.0625C192.865 54.4375 190.792 56.2917 188.125 57.625C185.479 58.9583 182.292 59.625 178.562 59.625C175.646 59.625 173.031 59.125 170.719 58.125C168.406 57.1042 166.427 55.6458 164.781 53.75C163.156 51.8542 161.917 49.5625 161.062 46.875C160.208 44.1875 159.781 41.1771 159.781 37.8438V34.6875C159.781 31.3542 160.219 28.3438 161.094 25.6562C161.99 22.9479 163.26 20.6458 164.906 18.75C166.573 16.8542 168.562 15.3958 170.875 14.375C173.188 13.3542 175.771 12.8438 178.625 12.8438C182.417 12.8438 185.615 13.5312 188.219 14.9062C190.844 16.2812 192.875 18.1771 194.312 20.5938C195.771 23.0104 196.646 25.7604 196.938 28.8438H187.562C187.458 27.0104 187.094 25.4583 186.469 24.1875C185.844 22.8958 184.896 21.9271 183.625 21.2812C182.375 20.6146 180.708 20.2812 178.625 20.2812C177.062 20.2812 175.698 20.5729 174.531 21.1562C173.365 21.7396 172.385 22.625 171.594 23.8125C170.802 25 170.208 26.5 169.812 28.3125C169.438 30.1042 169.25 32.2083 169.25 34.625V37.8438C169.25 40.1979 169.427 42.2708 169.781 44.0625C170.135 45.8333 170.677 47.3333 171.406 48.5625C172.156 49.7708 173.115 50.6875 174.281 51.3125C175.469 51.9167 176.896 52.2188 178.562 52.2188C180.521 52.2188 182.135 51.9062 183.406 51.2812C184.677 50.6562 185.646 49.7292 186.312 48.5C187 47.2708 187.406 45.7396 187.531 43.9062ZM209.281 13.5L218.781 34.25L228.281 13.5H238.5L223.531 42.4375V59H214.031V42.4375L199.031 13.5H209.281Z" fill="url(#paint0_linear_1960_142)"/>
</g>
</g>
<defs>
<filter id="filter0_d_1960_142" x="4.46875" y="12.8438" width="242.277" height="55.0273" filterUnits="userSpaceOnUse" color-interpolation-filters="sRGB">
<feFlood flood-opacity="0" result="BackgroundImageFix"/>
<feColorMatrix in="SourceAlpha" type="matrix" values="0 0 0 0 0 0 0 0 0 0 0 0 0 0 0 0 0 0 127 0" result="hardAlpha"/>
<feOffset dx="4.12303" dy="4.12303"/>
<feGaussianBlur stdDeviation="2.06152"/>
<feComposite in2="hardAlpha" operator="out"/>
<feColorMatrix type="matrix" values="0 0 0 0 0 0 0 0 0 0 0 0 0 0 0.0313726 0 0 0 0.25 0"/>
<feFlood flood-opacity="0" result="BackgroundImageFix"/>
<feBlend mode="normal" in2="BackgroundImageFix" result="effect1_dropShadow_1960_142"/>
<feBlend mode="normal" in="SourceGraphic" in2="effect1_dropShadow_1960_142" result="shape"/>
</filter>
<linearGradient id="paint0_linear_1960_142" x1="119.5" y1="0" x2="119.5" y2="75" gradientUnits="userSpaceOnUse">
<stop stop-color="#E0C97D"/>
<stop offset="1" stop-color="#9E7E39"/>
</linearGradient>
</defs>
</svg>
